<svg enable-background="new 0 0 512 512" id="Layer_1" version="1.1" viewBox="0 0 512 512"
     width="100%"
     x="0px" xml:space="preserve" xmlns="http://www.w3.org/2000/svg" y="0px">
<path d="
M369.468628,513.000000
	C366.495392,510.730011 363.088013,511.048187 360.158783,509.959106
	C333.768005,500.147156 317.442688,481.804382 312.656219,453.846466
	C308.931335,432.089172 313.470459,411.864319 324.940765,393.112091
	C327.113678,389.559723 329.235992,385.973511 331.506287,382.483978
	C349.796417,354.371155 350.835571,324.451965 340.549500,293.506195
	C333.831696,273.295593 320.911713,256.540253 309.298401,239.085709
	C303.762543,230.765427 297.874695,222.663757 292.657227,214.149963
	C273.073212,182.193024 282.163330,136.252655 312.201080,115.968132
	C327.547241,105.604858 344.678162,103.429077 362.405823,107.852470
	C406.536926,118.864029 441.474152,143.232361 465.791534,181.782181
	C478.601410,202.089355 481.553223,224.693466 478.674438,248.491852
	C475.971008,270.840668 468.651886,291.798645 461.804138,312.992767
	C455.348358,332.973663 451.830597,353.551910 450.137268,374.517609
	C449.315918,384.686584 449.574097,394.812073 449.353302,404.957245
	C449.222992,410.944763 446.387512,414.596588 441.651184,414.744354
	C436.628387,414.901001 433.799774,411.337036 433.644989,404.897217
	C432.699219,365.545258 438.968292,327.433136 452.641815,290.474274
	C458.893372,273.576569 462.497040,256.016968 463.776764,237.988693
	C465.461853,214.249680 457.759735,193.686447 442.574158,175.845535
	C421.084839,150.598572 394.682068,132.739792 362.435486,124.036530
	C342.699921,118.709938 324.900818,121.448441 311.263092,137.859879
	C297.489777,154.434509 292.980804,182.682724 304.581207,203.166870
	C313.214294,218.411316 323.968414,232.273346 333.625458,246.852890
	C345.944275,265.451050 356.629547,284.703094 360.459198,307.041412
	C365.597198,337.011139 361.917572,365.312042 344.804138,391.193909
	C338.098206,401.335754 331.578796,411.652374 328.916687,423.794403
	C321.193756,459.018646 338.229767,487.683014 369.558563,496.066498
	C398.454956,503.799164 428.269043,483.485748 432.741028,453.943451
	C433.546143,448.624939 433.414673,443.330963 433.757324,438.028015
	C434.137817,432.139740 437.422333,429.079926 442.594116,429.511993
	C446.438263,429.833160 448.969391,431.931854 449.228851,435.742157
	C451.241394,465.295624 439.640961,494.292755 408.299469,507.882050
	C403.600342,509.919525 398.506439,511.046448 393.297546,512.797241
	C385.312408,513.000000 377.624847,513.000000 369.468628,513.000000
z" fill="#000000" opacity="1.000000"
      stroke="none"/>
  <path d="
M121.468620,513.000000
	C119.122749,511.328278 116.638840,511.509674 114.426865,510.893524
	C87.401062,503.365265 69.046387,482.404541 65.638657,454.395813
	C63.258007,434.828735 65.006119,415.134552 64.717941,395.500366
	C64.332916,369.268311 61.165108,343.490051 53.607998,318.299377
	C48.832550,302.381042 42.832386,286.834930 39.216621,270.563019
	C35.487656,253.781601 32.807285,236.857101 34.931328,219.665955
	C37.381866,199.832260 45.578213,182.213028 58.280029,166.952499
	C82.383339,137.993668 112.305664,117.887779 149.118896,108.417686
	C189.427689,98.048370 222.433258,121.165863 230.283630,161.766342
	C234.444427,183.285187 229.748856,202.960358 217.233429,220.961807
	C207.441422,235.046097 197.943863,249.338013 188.474396,263.642883
	C177.480774,280.250244 169.662094,298.238403 167.701324,318.178650
	C165.606354,339.483704 168.353394,359.990204 180.143021,378.637726
	C185.117371,386.505615 190.395203,394.235962 194.202393,402.803802
	C196.817520,408.688995 195.847656,413.101624 191.384857,415.245392
	C186.858551,417.419739 182.904663,415.526306 179.977142,409.552582
	C175.640198,400.702820 170.045074,392.598969 165.067444,384.130432
	C156.711227,369.913879 152.699631,354.515289 151.610992,338.149261
	C149.368576,304.437714 160.917694,275.126434 179.714203,247.991425
	C188.250778,235.667831 196.496002,223.142853 204.950455,210.761841
	C218.237793,191.303391 219.299194,170.781097 209.943146,149.594757
	C200.444519,128.085617 180.187241,117.717438 157.231522,122.777206
	C119.866150,131.013077 90.210106,151.495819 67.099319,181.532516
	C50.757957,202.771088 47.465702,227.007446 51.747288,253.025299
	C55.580238,276.316895 64.478569,298.084045 70.663116,320.656525
	C75.370445,337.837463 78.006477,355.362213 79.410225,373.124786
	C81.317490,397.258850 79.569046,421.421112 80.391457,445.550568
	C81.271545,471.372223 97.153603,490.799957 121.288918,496.295502
	C150.504547,502.947845 181.122437,481.779175 185.773178,452.004974
	C186.341568,448.366058 186.517014,444.743958 186.803024,441.101807
	C187.258179,435.305328 190.273010,432.269653 195.064499,432.424316
	C200.057938,432.585510 202.375320,435.498505 202.377640,441.617126
	C202.390686,476.008545 181.194824,503.014038 147.444611,511.631073
	C146.481064,511.877106 145.563339,512.302551 144.312134,512.822205
	C136.645752,513.000000 129.291489,513.000000 121.468620,513.000000
z" fill="#000000" opacity="1.000000"
        stroke="none"/>
  <path d="
M324.533875,1.000000
	C334.970398,5.150997 342.847778,11.708271 347.611694,21.481033
	C367.750549,10.905621 375.892395,13.616620 389.954865,35.443512
	C407.976776,29.391104 419.420044,37.389637 426.406616,54.029438
	C431.459137,52.600384 436.139282,50.837761 441.263306,52.065441
	C453.749725,55.057114 460.298920,63.724648 463.211029,75.450104
	C464.346710,80.022850 465.926300,81.927528 471.011963,81.830673
	C479.723206,81.664780 486.346680,86.518379 490.674500,93.640999
	C499.376068,107.961937 500.255768,122.976799 491.623718,137.613129
	C482.527008,153.037308 463.859100,154.202621 452.205261,140.588196
	C448.321655,136.051208 445.914978,130.828476 444.703644,125.030396
	C444.364899,123.408943 444.192627,121.759972 442.995178,120.216537
	C427.539642,121.592827 418.758331,112.820267 413.100830,99.788422
	C393.327209,103.455086 386.705841,100.184631 376.524017,81.494156
	C365.340332,86.330574 355.346100,83.719849 346.942535,75.234329
	C344.293213,76.481079 343.307007,78.735703 341.763092,80.413673
	C329.911957,93.293839 312.490875,94.283737 299.439331,82.573280
	C286.103210,70.607506 282.929718,54.890068 284.224274,38.046593
	C285.309662,23.925547 291.284698,12.155924 303.864594,4.535692
	C305.699585,3.424158 307.658112,2.516531 309.779724,1.257270
	C314.689240,1.000000 319.378510,1.000000 324.533875,1.000000
M319.510559,74.729080
	C324.854279,74.733734 328.576416,71.875992 331.467377,67.754478
	C340.271912,55.202179 339.612793,35.483852 330.051361,23.387947
	C322.621704,13.988853 312.221802,14.462439 305.237915,24.306585
	C297.177826,35.667763 298.165009,54.671772 305.582886,65.793404
	C308.702942,70.471336 312.708344,74.133408 319.510559,74.729080
M463.037842,101.569817
	C457.627899,110.005920 458.116669,123.212303 464.093872,130.105057
	C469.005402,135.768936 474.324524,135.449356 478.343109,129.248932
	C483.199341,121.755981 482.636810,108.886909 477.145996,101.861710
	C472.729645,96.211205 468.748077,95.954201 463.037842,101.569817
M404.243347,50.045650
	C399.748566,48.119518 396.504089,49.975040 393.930481,53.565411
	C388.755829,60.784325 389.201782,74.351891 394.785980,81.356529
	C399.631439,87.434525 405.619598,87.069305 409.729980,80.445061
	C415.367310,71.360008 413.141479,57.544895 404.243347,50.045650
M442.022308,69.404350
	C437.144623,66.636353 434.500488,67.007172 431.165161,70.926979
	C424.953461,78.227242 425.300415,93.629051 431.834747,100.653297
	C436.832428,106.025604 441.696136,105.609116 445.676666,99.467903
	C451.290710,90.806496 449.907745,77.557701 442.022308,69.404350
M370.790314,34.682312
	C365.008667,29.698193 360.498657,30.361849 356.553223,36.777321
	C352.151672,43.934494 353.055786,57.053738 358.400757,63.586304
	C363.557037,69.888237 369.767242,69.457596 373.303711,62.039410
	C377.666840,52.887058 377.315582,43.755318 370.790314,34.682312
z" fill="#000000" opacity="1.000000"
        stroke="none"/>
  <path d="
M203.533142,1.000001
	C204.343933,1.358300 204.621964,1.893333 205.041214,2.049705
	C235.838745,13.536408 235.716904,59.981922 218.256729,78.947639
	C203.141403,95.366318 182.720840,94.553101 169.219315,76.604973
	C168.829956,76.087410 168.357208,75.632599 167.398697,74.563171
	C159.122467,83.651085 149.141068,86.283012 137.411728,81.501099
	C133.959229,88.559425 129.964005,94.839775 123.182426,98.676414
	C116.150734,102.654556 108.841454,102.105042 100.861885,99.496330
	C98.508400,105.858376 94.803513,111.306328 89.396912,115.358322
	C83.977783,119.419724 77.834412,121.056190 71.068047,120.019585
	C69.167923,122.669868 69.323196,125.813568 68.406693,128.613739
	C66.106613,135.641068 62.321976,141.559723 56.176647,145.768417
	C47.052406,152.017273 35.888783,151.297638 27.617258,144.048080
	C12.301080,130.624237 13.261224,99.339035 29.384172,86.871735
	C33.856136,83.413727 38.796108,81.060257 44.592403,81.704292
	C48.199970,82.105148 49.576595,80.607071 50.241871,77.249954
	C51.768459,69.546471 55.134434,62.712856 61.320068,57.654556
	C67.569832,52.543816 74.644249,50.016613 82.667397,52.726593
	C86.186172,53.915127 87.921700,53.179985 89.645645,49.773624
	C96.748535,35.738998 106.352036,31.376984 121.562744,35.084724
	C123.981377,35.674290 124.905350,34.871281 125.768158,32.975754
	C127.291786,29.628475 129.178772,26.504505 131.657913,23.750559
	C139.993805,14.490664 152.386307,12.851243 162.784760,19.649599
	C163.734085,20.270248 164.733948,20.813578 166.205170,21.686373
	C170.961945,12.290851 178.211929,5.738826 187.793884,1.270464
	C193.022095,1.000000 198.044189,1.000000 203.533142,1.000001
M213.106049,33.522209
	C211.678665,29.043119 209.745163,24.836544 206.360672,21.463428
	C200.004120,15.128238 192.672211,14.978551 186.075012,21.009315
	C173.763931,32.263359 172.991119,58.259277 184.610184,70.283752
	C190.058655,75.922318 196.748962,76.372391 202.943863,71.616058
	C207.893646,67.815704 211.022003,62.835125 212.558853,56.870731
	C214.478775,49.419785 215.297684,41.893120 213.106049,33.522209
M122.818092,59.778709
	C122.264130,56.942619 120.996071,54.448605 119.086632,52.303471
	C115.490295,48.263184 110.709953,48.201103 106.946533,52.097504
	C100.313812,58.964592 99.358009,74.189766 105.081985,81.798225
	C108.772835,86.704193 113.458382,87.198982 117.721405,82.799957
	C123.826988,76.499611 124.423645,68.735832 122.818092,59.778709
M76.192680,104.490669
	C88.252937,100.982277 91.009865,79.056931 82.248131,70.345284
	C79.751778,67.863197 76.802811,66.278709 73.300179,68.517593
	C67.184845,72.426506 65.446808,78.545532 65.160934,85.288147
	C64.869781,92.155373 65.709846,98.688339 71.784096,103.175194
	C72.799721,103.925407 74.236061,104.106049 76.192680,104.490669
M36.205257,102.770027
	C31.498840,110.972755 30.762569,119.426361 35.082851,127.955681
	C39.101212,135.888916 46.142246,136.324753 50.838989,128.773132
	C55.594116,121.127647 56.305519,112.722450 52.710526,104.458633
	C49.006824,95.944908 42.767963,95.243828 36.205257,102.770027
M151.376740,67.163536
	C160.979645,60.661587 163.472610,43.990028 156.158890,35.183258
	C151.934814,30.096865 147.571686,29.972727 143.109970,34.811977
	C136.993866,41.445614 136.162003,55.743023 141.386414,63.412060
	C143.661499,66.751732 146.483917,68.637032 151.376740,67.163536
z" fill="#000000" opacity="1.000000"
        stroke="none"/>
</svg>
